REM DIRINDEX 1\2,1\3,1\4,1\5
REM DIRNAME "folder01","folder02","folder03","folder04","folder05"
TITLE ""
FILE "1Q_j_2384-2400.mp3" MP3
  TRACK 01 AUDIO
    TITLE "0:"
    INDEX 01 00:00:00
  TRACK 02 AUDIO
    TITLE "3:cjc172_0854"
    INDEX 01 00:00:08
  TRACK 03 AUDIO
    TITLE "0:"
    INDEX 01 00:01:41
  TRACK 04 AUDIO
    TITLE "4:cjc172_0855"
    INDEX 01 00:01:53
  TRACK 05 AUDIO
    TITLE "0:"
    INDEX 01 00:04:08
  TRACK 06 AUDIO
    TITLE "5:cjc172_0856"
    INDEX 01 00:04:16
  TRACK 07 AUDIO
    TITLE "0:"
    INDEX 01 00:10:36
  TRACK 08 AUDIO
    TITLE "3:cjc172_0857"
    INDEX 01 00:11:08
  TRACK 09 AUDIO
    TITLE "0:"
    INDEX 01 00:12:31
  TRACK 10 AUDIO
    TITLE "4:cjc172_0858"
    INDEX 01 00:12:39
  TRACK 11 AUDIO
    TITLE "0:"
    INDEX 01 00:15:18
  TRACK 12 AUDIO
    TITLE "5:cjc172_0859"
    INDEX 01 00:15:27
  TRACK 13 AUDIO
    TITLE "0:"
    INDEX 01 00:20:62
  TRACK 14 AUDIO
    TITLE "3:cjc172_0860"
    INDEX 01 00:21:32
  TRACK 15 AUDIO
    TITLE "0:"
    INDEX 01 00:22:63
  TRACK 16 AUDIO
    TITLE "4:cjc172_0861"
    INDEX 01 00:22:71
  TRACK 17 AUDIO
    TITLE "0:"
    INDEX 01 00:24:73
  TRACK 18 AUDIO
    TITLE "5:cjc172_0862"
    INDEX 01 00:25:06
  TRACK 19 AUDIO
    TITLE "0:"
    INDEX 01 00:30:19
  TRACK 20 AUDIO
    TITLE "3:cjc172_0863"
    INDEX 01 00:30:64
  TRACK 21 AUDIO
    TITLE "0:"
    INDEX 01 00:32:08
  TRACK 22 AUDIO
    TITLE "4:cjc172_0864"
    INDEX 01 00:32:18
  TRACK 23 AUDIO
    TITLE "0:"
    INDEX 01 00:34:09
  TRACK 24 AUDIO
    TITLE "5:cjc172_0865"
    INDEX 01 00:34:17
  TRACK 25 AUDIO
    TITLE "0:"
    INDEX 01 00:39:30
  TRACK 26 AUDIO
    TITLE "3:cjc172_0866"
    INDEX 01 00:39:75
  TRACK 27 AUDIO
    TITLE "0:"
    INDEX 01 00:41:21
  TRACK 28 AUDIO
    TITLE "4:cjc172_0867"
    INDEX 01 00:41:31
  TRACK 29 AUDIO
    TITLE "0:"
    INDEX 01 00:46:18
  TRACK 30 AUDIO
    TITLE "5:cjc172_0868"
    INDEX 01 00:46:26
  TRACK 31 AUDIO
    TITLE "0:"
    INDEX 01 00:50:42
  TRACK 32 AUDIO
    TITLE "3:cjc172_0869"
    INDEX 01 00:51:12
  TRACK 33 AUDIO
    TITLE "0:"
    INDEX 01 00:52:19
  TRACK 34 AUDIO
    TITLE "4:cjc172_0870"
    INDEX 01 00:52:31
  TRACK 35 AUDIO
    TITLE "0:"
    INDEX 01 00:56:30
  TRACK 36 AUDIO
    TITLE "5:cjc172_0871"
    INDEX 01 00:56:38
  TRACK 37 AUDIO
    TITLE "0:"
    INDEX 01 01:01:41
  TRACK 38 AUDIO
    TITLE "3:cjc172_0872"
    INDEX 01 01:02:11
  TRACK 39 AUDIO
    TITLE "0:"
    INDEX 01 01:03:46
  TRACK 40 AUDIO
    TITLE "4:cjc172_0873"
    INDEX 01 01:03:58
  TRACK 41 AUDIO
    TITLE "0:"
    INDEX 01 01:05:70
  TRACK 42 AUDIO
    TITLE "5:cjc172_0874"
    INDEX 01 01:06:01
  TRACK 43 AUDIO
    TITLE "0:"
    INDEX 01 01:10:66
  TRACK 44 AUDIO
    TITLE "3:cjc172_0875"
    INDEX 01 01:11:42
  TRACK 45 AUDIO
    TITLE "0:"
    INDEX 01 01:12:72
  TRACK 46 AUDIO
    TITLE "4:cjc172_0876"
    INDEX 01 01:13:05
  TRACK 47 AUDIO
    TITLE "0:"
    INDEX 01 01:15:36
  TRACK 48 AUDIO
    TITLE "5:cjc172_0877"
    INDEX 01 01:15:43
  TRACK 49 AUDIO
    TITLE "0:"
    INDEX 01 01:21:11
  TRACK 50 AUDIO
    TITLE "3:cjc172_0878"
    INDEX 01 01:21:56
  TRACK 51 AUDIO
    TITLE "0:"
    INDEX 01 01:23:12
  TRACK 52 AUDIO
    TITLE "4:cjc172_0879"
    INDEX 01 01:23:19
  TRACK 53 AUDIO
    TITLE "0:"
    INDEX 01 01:24:54
  TRACK 54 AUDIO
    TITLE "5:cjc172_0880"
    INDEX 01 01:24:60
  TRACK 55 AUDIO
    TITLE "0:"
    INDEX 01 01:31:05
  TRACK 56 AUDIO
    TITLE "3:cjc172_0881"
    INDEX 01 01:31:52
  TRACK 57 AUDIO
    TITLE "0:"
    INDEX 01 01:32:67
  TRACK 58 AUDIO
    TITLE "4:cjc172_0882"
    INDEX 01 01:32:75
  TRACK 59 AUDIO
    TITLE "0:"
    INDEX 01 01:37:27
  TRACK 60 AUDIO
    TITLE "5:cjc172_0883"
    INDEX 01 01:37:33
  TRACK 61 AUDIO
    TITLE "0:"
    INDEX 01 01:43:24
  TRACK 62 AUDIO
    TITLE "3:cjc172_0884"
    INDEX 01 01:43:69
  TRACK 63 AUDIO
    TITLE "0:"
    INDEX 01 01:45:19
  TRACK 64 AUDIO
    TITLE "4:cjc172_0885"
    INDEX 01 01:45:27
  TRACK 65 AUDIO
    TITLE "0:"
    INDEX 01 01:47:39
  TRACK 66 AUDIO
    TITLE "5:cjc172_0886"
    INDEX 01 01:47:47
  TRACK 67 AUDIO
    TITLE "0:"
    INDEX 01 01:51:49
  TRACK 68 AUDIO
    TITLE "3:cjc172_0887"
    INDEX 01 01:52:19
  TRACK 69 AUDIO
    TITLE "0:"
    INDEX 01 01:54:40
  TRACK 70 AUDIO
    TITLE "4:cjc172_0888"
    INDEX 01 01:54:49
  TRACK 71 AUDIO
    TITLE "0:"
    INDEX 01 01:57:01
  TRACK 72 AUDIO
    TITLE "5:cjc172_0889"
    INDEX 01 01:57:09
  TRACK 73 AUDIO
    TITLE "0:"
    INDEX 01 02:03:46
  TRACK 74 AUDIO
    TITLE "3:cjc172_0890"
    INDEX 01 02:04:16
  TRACK 75 AUDIO
    TITLE "0:"
    INDEX 01 02:05:18
  TRACK 76 AUDIO
    TITLE "4:cjc172_0891"
    INDEX 01 02:05:37
  TRACK 77 AUDIO
    TITLE "0:"
    INDEX 01 02:07:15
  TRACK 78 AUDIO
    TITLE "5:cjc172_0892"
    INDEX 01 02:07:21
  TRACK 79 AUDIO
    TITLE "0:"
    INDEX 01 02:10:19
  TRACK 80 AUDIO
    TITLE "3:cjc172_0893"
    INDEX 01 02:10:64
  TRACK 81 AUDIO
    TITLE "0:"
    INDEX 01 02:12:32
  TRACK 82 AUDIO
    TITLE "4:cjc172_0894"
    INDEX 01 02:12:39
  TRACK 83 AUDIO
    TITLE "0:"
    INDEX 01 02:15:03
  TRACK 84 AUDIO
    TITLE "5:cjc172_0895"
    INDEX 01 02:15:10
  TRACK 85 AUDIO
    TITLE "0:"
    INDEX 01 02:19:34
  TRACK 86 AUDIO
    TITLE "3:cjc172_0896"
    INDEX 01 02:20:04
  TRACK 87 AUDIO
    TITLE "0:"
    INDEX 01 02:21:31
  TRACK 88 AUDIO
    TITLE "4:cjc172_0897"
    INDEX 01 02:21:40
  TRACK 89 AUDIO
    TITLE "0:"
    INDEX 01 02:27:14
  TRACK 90 AUDIO
    TITLE "5:cjc172_0898"
    INDEX 01 02:27:19
  TRACK 91 AUDIO
    TITLE "0:"
    INDEX 01 02:32:30
  TRACK 92 AUDIO
    TITLE "3:cjc172_0899"
    INDEX 01 02:32:75
  TRACK 93 AUDIO
    TITLE "0:"
    INDEX 01 02:34:45
  TRACK 94 AUDIO
    TITLE "4:cjc172_0900"
    INDEX 01 02:34:53
  TRACK 95 AUDIO
    TITLE "0:"
    INDEX 01 02:37:04
  TRACK 96 AUDIO
    TITLE "5:cjc172_0901"
    INDEX 01 02:37:12
  TRACK 97 AUDIO
    TITLE "0:"
    INDEX 01 02:41:02
  TRACK 98 AUDIO
    TITLE "3:cjc172_0902"
    INDEX 01 02:41:47
  TRACK 99 AUDIO
    TITLE "0:"
    INDEX 01 02:43:01
  TRACK 100 AUDIO
    TITLE "4:cjc172_0903"
    INDEX 01 02:43:13
  TRACK 101 AUDIO
    TITLE "0:"
    INDEX 01 02:44:65
  TRACK 102 AUDIO
    TITLE "5:cjc172_0904"
    INDEX 01 02:44:71
  TRACK 103 AUDIO
    TITLE "0:"
    INDEX 01 02:50:64
